<svg width="39" height="31" viewBox="0 0 39 31" fill="none" xmlns="http://www.w3.org/2000/svg">
<path d="M0 13.9998C0 5.98371 6.18072 0 14.5904 0C22.9208 0 35.4296 5.94216 35.4296 13.9998C35.4296 22.0574 22.9208 27.9995 14.5904 27.9995C6.18072 27.9995 0 22.0196 0 13.9998ZM31.5194 13.9998C31.5194 7.95561 26.9859 3.47916 20.9185 3.47916C14.7793 3.47916 10.242 7.93295 10.242 13.9998C10.242 20.0666 14.7756 24.5204 20.9185 24.5204C26.9821 24.5204 31.5194 20.0628 31.5194 13.9998Z" fill="#2254A5"/>
<path d="M23.9863 30.9951C15.6521 30.9951 3.14334 25.053 3.14334 16.9991C3.14334 8.94532 15.6521 2.99561 23.9863 2.99561C32.3922 2.99561 38.5729 8.97931 38.5729 16.9991C38.5729 25.019 32.3922 30.9951 23.9863 30.9951ZM17.6544 27.516C23.8012 27.516 28.3347 23.0433 28.3347 16.9991C28.3347 10.955 23.8012 6.47477 17.6544 6.47477C11.6097 6.47477 7.05352 10.9323 7.05352 16.9954C7.05352 23.0584 11.5908 27.516 17.6544 27.516Z" fill="#45B3E6"/>
</svg>
